<?xml version="1.0" encoding="UTF-8"?>
<svg id="Layer_1" data-name="Layer 1" xmlns="http://www.w3.org/2000/svg" viewBox="0 0 166.11 155.27">
  <defs>
    <style>
      .cls-1 {
        stroke: #fff;
      }

      .cls-1, .cls-2 {
        stroke-miterlimit: 10;
      }

      .cls-1, .cls-3 {
        fill: red;
      }

      .cls-2 {
        fill: none;
        stroke: #000;
      }
    </style>
  </defs>
  <path class="cls-3" d="M66.74,77.68l-11.47,11.13,8.67,10.37s4.23-2.45,33.66,1.26l-2.2-23.63-8.09-2.7-20.57,3.56Z"/>
  <path class="cls-2" d="M3.26,119.19s38.77-22.44,77.55-20.48,82.91,20,82.91,20"/>
  <path class="cls-1" d="M88.91,74.52s-7.77-23.19-8.74-33.35c-.79-8.29,12.27-11.59,17.11-12.53.85.86,2.04,1.39,3.34,1.39,2.61,0,4.72-2.11,4.72-4.72s-2.11-4.72-4.72-4.72c-2.07,0-3.81,1.34-4.45,3.2l-.03-.05c-18.64-7.02-30.01,13.55-30.01,13.55-1.68.19-1.49-9.1-1.31-13.38,3.2-.42,5.67-3.16,5.67-6.47,0-3.61-2.93-6.54-6.54-6.54s-6.54,2.93-6.54,6.54c0,1.51.52,2.89,1.37,4-10.82,5.76-4.76,22.39-4.76,22.39-6.27-6.08-12.87-2.79-15.14-1.32-.83-.83-1.98-1.35-3.25-1.35-2.54,0-4.6,2.06-4.6,4.6s2.06,4.6,4.6,4.6c1.83,0,3.39-1.07,4.13-2.62,2.14-1.14,6.49-3.23,7.97-2.22,12.83,8.71,6.05,20.82,6.05,20.82l7.5-1.45,1.69,16.14"/>
  <path class="cls-1" d="M62.78,97.8l-12.62,10.46,6.13,13.7s8.65,6.13,2.52,13.34-11.9-2.52-11.9-2.52l-11.9-26.32,25.24-25.24"/>
  <path class="cls-1" d="M88.64,73.84l24.03,5.96c2.38.59,4.82-.73,5.62-3.04l5.48-15.68c.49-1.4.42-2.98-.41-4.21s-1.08-3.57,3.25-7.04c4.97-3.98,9.09-.07,11.16,2.74.96,1.3,1.19,3,.62,4.51l-10.92,28.71c-.54,1.42-1.73,2.5-3.21,2.9l-23.14,6.21c-2.92.72-3.5,5.04-3.5,5.04"/>
  <polygon class="cls-1" points="98.26 71.43 95.83 85.65 75.37 84.44 72.94 83.22 53.18 92.24 50.92 82.01 72.77 80.27 98.26 71.43"/>
  <circle class="cls-1" cx="73.98" cy="82.36" r="3.81"/>
</svg>