<?xml version="1.0" encoding="UTF-8"?>
<svg id="Layer_1" data-name="Layer 1" xmlns="http://www.w3.org/2000/svg" viewBox="0 0 166.11 155.27">
  <defs>
    <style>
      .cls-1 {
        stroke: #fff;
      }

      .cls-1, .cls-2 {
        stroke-miterlimit: 10;
      }

      .cls-1, .cls-3 {
        fill: red;
      }

      .cls-2 {
        fill: none;
        stroke: #000;
      }
    </style>
  </defs>
  <path class="cls-3" d="M65.1,79.68l-7.82,8.91-2.7,12.69s15.61-4.76,45.04-1.05l-2.8-17.2-9.24-9.32-22.47,5.98Z"/>
  <path class="cls-1" d="M88.91,74.52s-5.72-16.28-7.33-26.37c-2.31-14.47,11.62-13.84,14.41-10.69-.32.54-.52,1.15-.52,1.82,0,1.97,1.6,3.57,3.57,3.57s3.57-1.6,3.57-3.57c0-1.77-1.3-3.24-2.99-3.52-1.48-2.99-4.91-5.44-4.91-5.44-12.95-7.28-20.74,2.2-26.2,7.3-2.14,2-9.39,1.75-9.39,1.75-13.89-10.22-22.51-7.27-23.84-6.72-.51-.26-1.08-.42-1.69-.42-2.07,0-3.75,1.68-3.75,3.75s1.68,3.75,3.75,3.75,3.75-1.68,3.75-3.75c0-.05-.01-.1-.02-.15,4.59-1.38,11.09,4.06,13.54,6.33-2.3-1.94-5.41-2.78-9.64-2.67-3.46.09-5.8,3.44-7.02,5.78-1.65.45-2.87,1.94-2.87,3.73,0,2.14,1.74,3.88,3.88,3.88s3.88-1.74,3.88-3.88c0-.85-.28-1.63-.75-2.27.04-.19.08-.38.12-.6.88-4.63,9.24-.61,9.24-.61,12.83,8.71,6.05,20.82,6.05,20.82l7.5-1.45,1.69,16.14"/>
  <path class="cls-2" d="M3.26,119.19s38.77-22.44,77.55-20.48c38.77,1.95,82.91,20,82.91,20"/>
  <path class="cls-1" d="M60.25,81.21l-25.24,25.24,11.9,26.32s5.77,9.74,11.9,2.52-2.52-13.34-2.52-13.34l-6.13-13.7,12.62-10.46"/>
  <path class="cls-1" d="M96.57,81.21l25.24,25.24-11.9,26.32s-5.77,9.74-11.9,2.52,2.52-13.34,2.52-13.34l6.13-13.7-12.62-10.46"/>
  <polygon class="cls-1" points="98.26 71.43 95.83 85.65 75.37 84.44 72.94 83.22 53.18 92.24 50.92 82.01 72.77 80.27 98.26 71.43"/>
  <circle class="cls-1" cx="73.98" cy="82.36" r="3.81"/>
</svg>