<?xml version="1.0" encoding="UTF-8"?>
<svg id="Layer_1" data-name="Layer 1" xmlns="http://www.w3.org/2000/svg" viewBox="0 0 166.11 155.27">
  <defs>
    <style>
      .cls-1 {
        stroke: #fff;
      }

      .cls-1, .cls-2 {
        stroke-miterlimit: 10;
      }

      .cls-1, .cls-3 {
        fill: red;
      }

      .cls-2 {
        fill: none;
        stroke: #000;
      }
    </style>
  </defs>
  <path class="cls-3" d="M61.33,74.47l-6.19,14.34-2.7,12.69s15.61-4.76,45.04-1.05l-2.2-23.63-8.09-2.7-25.85.35Z"/>
  <path class="cls-1" d="M88.91,74.52s-6.56-23.38-8.74-33.35c-2.89-13.24,6.81-15.73,10.11-14.16.09,2.69,2.29,4.86,5,4.85s5.01-2.32,5-5.02-2.25-4.99-5.01-4.99c-1.2,0-2.28.44-3.14,1.14-13.44-6-28.63,7.28-28.93,6.64-8.58-18.35-21.68-11.56-23.21-12-1.07-2.01-3.32-3.31-5.83-2.95s-4.48,2.42-4.77,4.91c-.4,3.42,2.27,6.32,5.61,6.32,2.18,0,4.41-2.53,5.36-4.34,9.2,4.36,10.56,12.94,10.56,12.94,0,0-8.71-8.05-22.78-1.13-1.2-1.11-2.92-1.68-4.77-1.24s-3.43,2.03-3.82,3.95c-.68,3.34,1.86,6.28,5.08,6.28,2.87,0,5.19-2.32,5.19-5.19,0-.19-.04-.37-.06-.55,5.3.29,17.01,1.55,21.37,7.02,9.67,12.12,2.66,22.7,2.66,22.7l7.5-1.45,1.69,16.14"/>
  <path class="cls-2" d="M3.26,119.19s38.77-22.44,77.55-20.48c38.77,1.95,82.91,20,82.91,20"/>
  <path class="cls-1" d="M88.76,74l24.03,5.96c2.38.59,4.82-.73,5.62-3.04l5.48-15.68c.49-1.4.42-2.98-.41-4.21s-1.08-3.57,3.25-7.04c4.97-3.98,9.09-.07,11.16,2.74.96,1.3,1.19,3,.62,4.51l-10.92,28.71c-.54,1.42-1.73,2.5-3.21,2.9l-23.14,6.21c-2.33.62-3.81,2.49-3.46,4.87"/>
  <path class="cls-1" d="M61.9,73.84l-24.03,5.96c-2.38.59-4.82-.73-5.62-3.04l-5.48-15.68c-.49-1.4-.42-2.98.41-4.21s1.08-3.57-3.25-7.04c-4.97-3.98-9.09-.07-11.16,2.74-.96,1.3-1.19,3-.62,4.51l10.92,28.71c.54,1.42,1.73,2.5,3.21,2.9l23.14,6.21c2.33.62,3.82,2.89,3.46,5.28h0"/>
  <polygon class="cls-1" points="98.26 71.43 95.83 85.65 75.37 84.44 72.94 83.22 53.18 92.24 50.92 82.01 72.77 80.27 98.26 71.43"/>
  <circle class="cls-1" cx="73.98" cy="82.36" r="3.81"/>
</svg>